<?xml version="1.0" standalone="no"?>
<!DOCTYPE svg PUBLIC "-//W3C//DTD SVG 20010904//EN"
 "http://www.w3.org/TR/2001/REC-SVG-20010904/DTD/svg10.dtd">
<svg version="1.0" xmlns="http://www.w3.org/2000/svg"
 width="512.000000pt" height="512.000000pt" viewBox="0 0 512.000000 512.000000"
 preserveAspectRatio="xMidYMid meet">

<g transform="translate(0.000000,512.000000) scale(0.100000,-0.100000)"
fill="#000000" stroke="none">
<path d="M1922 4779 c-128 -63 -245 -239 -353 -526 -27 -72 -56 -189 -99 -401
-33 -165 -60 -305 -60 -313 0 -17 104 -58 240 -93 438 -116 1103 -134 1610
-45 198 34 450 109 450 133 0 16 -51 277 -90 461 -67 316 -185 571 -329 715
-67 67 -117 92 -193 98 -55 4 -61 2 -150 -51 -122 -72 -178 -99 -263 -128
-147 -49 -263 -20 -511 127 -113 67 -157 71 -252 23z m1135 -502 c35 -23 59
-43 54 -45 -16 -5 -112 42 -149 73 -30 25 -92 118 -92 138 0 4 28 -22 61 -58
34 -36 91 -85 126 -108z m-852 119 c-35 -73 -125 -144 -205 -161 -30 -6 -25 0
43 45 42 28 98 76 124 106 26 29 48 52 51 50 2 -3 -4 -20 -13 -40z"/>
<path d="M362 3732 c-66 -24 -95 -51 -123 -115 -40 -96 -25 -248 39 -389 123
-269 443 -448 887 -498 50 -5 122 -10 162 -10 l72 0 15 -57 c184 -664 513
-1253 994 -1780 l85 -92 19 24 19 25 -98 107 c-445 485 -787 1107 -919 1673
-16 71 -20 77 -72 120 -69 56 -187 193 -362 420 -84 109 -188 229 -276 317
-78 78 -135 139 -127 135 7 -5 54 -41 103 -82 111 -91 208 -198 409 -455 179
-229 289 -344 416 -434 116 -82 220 -133 364 -181 202 -67 353 -90 596 -90
244 0 415 28 622 101 124 44 182 75 308 167 167 121 207 164 510 547 133 168
299 338 393 403 34 24 62 41 62 39 0 -2 -34 -33 -75 -67 -94 -79 -199 -198
-405 -460 -88 -113 -205 -250 -259 -305 -97 -99 -99 -101 -116 -175 -133 -569
-464 -1173 -914 -1668 l-102 -112 19 -25 19 -24 85 92 c186 204 304 354 441
563 241 365 436 795 553 1217 l15 57 72 0 c231 0 507 63 691 158 265 136 418
361 419 614 0 64 -5 87 -27 132 -33 67 -62 91 -135 112 -188 55 -492 -78 -926
-406 -162 -122 -269 -180 -454 -244 -248 -86 -463 -126 -731 -133 -305 -8
-551 27 -836 122 -209 69 -318 126 -489 255 -445 336 -756 469 -943 402z"/>
<path d="M2521 798 c-10 -28 -4 -45 20 -59 32 -16 61 6 57 44 -3 28 -7 32 -36
35 -26 3 -34 -1 -41 -20z"/>
<path d="M2520 529 c0 -103 3 -194 6 -203 8 -21 60 -21 68 0 3 9 6 100 6 203
l0 188 -40 0 -40 0 0 -188z"/>
</g>
</svg>
